<svg width="500" height="568" xmlns="http://www.w3.org/2000/svg" xmlns:xlink="http://www.w3.org/1999/xlink" overflow="hidden"><defs><clipPath id="clip0"><rect x="9" y="80" width="500" height="568"/></clipPath></defs><g clip-path="url(#clip0)" transform="translate(-9 -80)"><path d="M189.195 292C184.2 292 180.044 295.429 180.044 300.571 180.044 305.714 184.2 309.955 189.195 309.955L368.717 309.955C373.756 309.955 378 305.714 378 300.571 378 295.429 373.756 292 368.717 292Z" fill="#F4DDAA" fill-rule="evenodd"/><path d="M189.195 326.045C184.2 326.045 180.044 330.364 180.044 335.545 180.044 340.727 184.2 345 189.195 345L368.717 345C373.756 345 378 340.727 378 335.545 378 330.364 373.756 326.045 368.717 326.045Z" fill="#F4DDAA" fill-rule="evenodd"/><path d="M189.199 390C184.201 390 180.044 394.241 180.044 399.383 180.044 403.714 184.201 407.955 189.199 407.955L353.713 407.955C358.71 407.955 362.956 403.714 362.956 399.383 362.956 394.241 358.71 390 353.713 390Z" fill="#F4DDAA" fill-rule="evenodd"/><path d="M189.188 425C184.196 425 180.044 429.241 180.044 433.571 180.044 438.714 184.196 442.955 189.188 442.955L336.724 442.955C341.759 442.955 346 438.714 346 433.571 346 429.241 341.759 425 336.724 425Z" fill="#F4DDAA" fill-rule="evenodd"/><path d="M189.191 488C184.198 488 180.044 492.273 180.044 497.455 180.044 502.636 184.198 507 189.191 507L306.604 507C311.642 507 315 502.636 315 497.455 315 492.273 311.642 488 306.604 488Z" fill="#F4DDAA" fill-rule="evenodd"/><path d="M189.172 523C184.189 523 180.044 527.048 180.044 531.957 180.044 536.866 184.189 541 189.172 541L289.578 541C294.605 541 297.956 536.866 297.956 531.957 297.956 527.048 294.605 523 289.578 523Z" fill="#F4DDAA" fill-rule="evenodd"/><path d="M472.742 289.497C475.305 289.497 477.78 290.328 480.299 291.159 484.497 293.652 487.811 296.977 489.49 301.088 491.17 306.075 490.374 310.274 488.695 314.386L481.138 329.302 449.277 314.386 456.833 299.426C459.308 293.652 466.025 289.497 472.742 289.497ZM441.764 330.177 473.626 345.137 468.588 356.728 436.727 341.812 441.764 330.177ZM428.33 357.559 460.987 372.475C457.629 379.124 360.365 579.987 357.89 584.974L326.028 570.014 428.33 357.559ZM421.613 493.641 421.613 576.663C421.613 588.298 411.582 598.228 399.827 598.228L371.324 598.228 421.613 493.641ZM320.151 586.636 347.815 599.89 318.472 625.654 320.151 586.636ZM472.742 272C459.485 272 446.714 279.392 440.085 291.99L305.922 570.014C304.242 574.213 303.359 577.538 302.563 582.524L300 631.428C300 637.289 303.359 643.063 308.396 645.6 310.606 646.519 312.948 646.956 315.202 646.956 318.958 646.956 322.582 645.688 325.145 643.063L356.211 615.724 399.827 615.724C421.613 615.724 440.085 598.228 440.085 576.663L440.085 456.329C446.758 441.413 496.207 339.275 504.604 322.697 513 305.288 505.488 283.723 487.811 275.412 482.95 273.094 477.824 272 472.742 272Z" fill="#F4DDAA" fill-rule="evenodd"/><path d="M109.815 111.728 109.815 169.773C109.815 175.543 105.575 179.739 99.7453 179.739L41.0928 179.739 109.815 111.728ZM131.589 81C121.519 81 111.493 85.1961 103.897 92.6266L21.7923 173.095C14.2841 180.526 10.0442 190.491 10.0442 201.288L10.0442 576.968C10.0442 598.516 28.4614 616 50.2794 616L271.507 616C276.542 616 280.737 612.678 280.737 607.695 280.737 602.712 276.542 598.516 271.507 598.516L50.2794 598.516C38.5312 598.516 28.4614 588.594 28.4614 576.968L28.4614 201.288 28.4614 197.092 99.7453 197.092C114.806 197.092 128.232 184.722 128.232 169.773L128.232 99.2267 399.765 99.2267C411.513 99.2267 421.539 109.192 421.539 120.819L421.539 283.373C421.539 288.356 425.69 292.509 430.725 292.509 435.76 292.509 440 288.356 440 283.373L440 120.819C440 99.2267 421.539 81 399.765 81Z" fill="#F4DDAA" fill-rule="evenodd"/><path d="M130.01 295.623C131.693 295.623 133.376 297.301 133.376 298.98L133.376 334.976C133.376 336.655 131.693 338.333 130.01 338.333L93.8313 338.333C92.1485 338.333 90.4658 336.655 90.4658 334.976L90.4658 298.98C90.4658 297.301 92.1485 295.623 93.8313 295.623ZM93.8313 278C82.0964 278 72 287.231 72 298.98L72 334.976C72 346.725 82.0964 355.956 93.8313 355.956L130.01 355.956C141.789 355.956 151 346.725 151 334.976L151 298.98C151 287.231 141.789 278 130.01 278Z" fill="#F4DDAA" fill-rule="evenodd"/><path d="M130.01 395.431C131.693 395.431 133.376 397.087 133.376 398.742L133.376 434.258C133.376 435.913 131.693 437.569 130.01 437.569L93.8313 437.569C92.1485 437.569 90.4658 435.913 90.4658 434.258L90.4658 398.742C90.4658 397.087 92.1485 395.431 93.8313 395.431ZM93.8313 378.044C82.0964 378.044 72 387.151 72 398.742L72 434.258C72 445.849 82.0964 454.956 93.8313 454.956L130.01 454.956C141.789 454.956 151 445.849 151 434.258L151 398.742C151 387.151 141.789 378.044 130.01 378.044Z" fill="#F4DDAA" fill-rule="evenodd"/><path d="M130.01 494.657C131.693 494.657 133.376 496.334 133.376 498.012L133.376 533.988C133.376 535.666 131.693 537.343 130.01 537.343L93.8313 537.343C92.1485 537.343 90.4658 535.666 90.4658 533.988L90.4658 498.012C90.4658 496.334 92.1485 494.657 93.8313 494.657ZM93.8313 477.044C82.0964 477.044 72 486.27 72 498.012L72 533.988C72 545.73 82.0964 554.956 93.8313 554.956L130.01 554.956C141.789 554.956 151 545.73 151 533.988L151 498.012C151 486.27 141.789 477.044 130.01 477.044Z" fill="#F4DDAA" fill-rule="evenodd"/><path d="M294.978 177.203C302.597 177.203 308.444 183.845 308.444 191.318 308.444 196.299 306.761 200.407 302.597 202.942 300.028 204.602 297.547 205.389 294.978 205.389 291.611 205.389 289.13 204.602 286.605 202.942 283.239 200.407 280.714 196.299 280.714 191.318 280.714 183.845 287.447 177.203 294.978 177.203ZM294.978 138.266C325.233 138.266 350.483 163.131 350.483 192.978 350.483 204.602 347.117 215.352 341.269 224.485 336.219 217.013 330.283 211.245 322.753 207.049 325.233 202.068 326.917 197.086 326.917 191.318 326.917 173.881 312.697 159.81 294.978 159.81 277.392 159.81 263.039 173.881 263.039 191.318 263.039 197.086 264.722 202.068 267.292 207.049 259.672 211.245 252.983 217.013 248.775 224.485 242.883 215.352 238.719 204.602 238.719 192.978 238.719 163.131 263.925 138.266 294.978 138.266ZM308.444 219.547C316.861 222.825 323.55 229.467 327.803 237.77 318.544 244.412 306.761 248.52 294.978 248.52 282.397 248.52 270.658 244.412 261.356 237.77 265.608 229.467 272.342 222.825 280.714 219.547 285.764 221.995 289.928 222.825 294.978 222.825 299.23 222.825 304.28 221.995 308.444 219.547ZM294.978 120.044C253.825 120.044 221.044 153.212 221.044 192.978 221.044 214.566 230.303 232.788 244.567 246.073 244.567 246.86 245.453 246.86 245.453 247.734 258.875 259.314 275.708 265.956 294.978 265.956 313.494 265.956 331.169 259.314 343.75 247.734 344.636 246.86 344.636 246.86 345.433 246.86 359.742 232.788 368.956 214.566 368.956 192.978 368.956 153.212 335.333 120.044 294.978 120.044Z" fill="#F4DDAA" fill-rule="evenodd"/></g></svg>