<svg width="879" height="835" xmlns="http://www.w3.org/2000/svg" xmlns:xlink="http://www.w3.org/1999/xlink" overflow="hidden"><defs><clipPath id="clip0"><rect x="-156" y="-130" width="879" height="835"/></clipPath></defs><g clip-path="url(#clip0)" transform="translate(156 130)"><path d="M283.024-113.987C161.557-113.987 43.4798-59.6599-35.7175 38.7899-144.497 174.029-156 363.092-64.4558 510.515 11.113 632.55 143.73 703.987 283.175 703.987 312.204 703.987 341.521 700.901 370.688 694.513L373.913 693.593C559.975 651.273 691.987 485.909 691.987 295.006 691.987 121.592 582.515-33.2016 418.753-90.7042 374.279-106.403 328.418-113.987 283.024-113.987Z" fill="#90D1CB" fill-rule="evenodd"/><path d="M-28.4747-128.987C-57.1446-128.987-88.9303-115.333-113.329-89.7148-134.435-67.8533-167-18.1417-150.027 67.7031-143.381 102.223-129.385 138.129-108.517 175.876-83.9803 219.839-50.0337 265.869-6.45085 313.74-1.86516 318.795 2.94667 324.09 7.99719 329.386L12.3442 333.987 16.7037 329.852 21.0633 325.477C19.4551 323.863 17.8596 322.25 16.4776 320.649 11.427 315.58 6.61522 310.512 2.02954 305.217-45.9003 252.517-80.073 203.726-103.24 159.764-162.414 47.2159-148.883-35.4015-104.622-81.4317-82.7742-104.352-53.652-116.897-27.9973-116.897-12.7075-116.897 1.35109-112.434 11.8919-103.066 30.6995-86.7269 43.3132-64.3989 47.2079-39.7763 50.8765-42.0709 54.3189-44.605 57.9874-46.9122 52.7108-72.2282 39.1799-95.237 19.6938-112.043 6.6906-123.49-10.2702-128.987-28.4747-128.987Z" fill="#2F4A8A" fill-rule="evenodd"/><path d="M6.57563 301.013 2.65024 304.733-6.13758 313.104-10.9873 317.754C-5.66906 323.335-0.350788 328.916 5.19541 334.496L8.89288 337.987 17.4401 329.387 21.6061 324.966 26 320.774C24.6071 319.385 23.4548 318.213 22.0619 316.824 16.7563 311.473 11.666 306.122 6.57563 301.013Z" fill="#C3D9FB" fill-rule="evenodd"/><path d="M43.0122 311.013C36.8477 311.013 30.5829 312.364 24.669 315.218 23.7418 315.685 22.8272 316.38 21.9125 316.834 20.0832 317.756 18.492 318.905 16.8882 320.067 13.6807 322.605 10.9367 325.371 8.65637 328.818 7.27813 330.435 6.13795 332.278 5.2233 334.122-9.98747 364.026 13.2046 395.987 42.3606 395.987 48.2745 395.987 54.439 394.674 60.5785 391.757L60.5785 391.984C81.841 382.071 90.9875 356.487 81.1644 335.284 73.9223 319.865 58.7742 311.013 43.0122 311.013Z" fill="#C3D9FB" fill-rule="evenodd"/><path d="M41.8112 332.013C26.593 332.013 15 348.262 22.1119 363.492 25.7748 371.301 33.6294 376 41.8741 376 45.0336 376 48.2434 375.307 51.3021 373.846 69 365.557 67.842 340.037 49.4643 333.373 46.8587 332.441 44.2909 332.013 41.8112 332.013Z" fill="#7EACEC" fill-rule="evenodd"/><path d="M42.2675 346.012C36.4815 346.012 32.0129 351.865 34.8413 357.401 36.3653 360.272 39.3616 362 42.5 362 43.7269 362 44.9668 361.732 46.155 361.173 53 358.058 52.5221 348.957 45.2122 346.511 44.2177 346.17 43.2232 346.012 42.2675 346.012Z" fill="#202632" fill-rule="evenodd"/><path d="M694.446 341 689.386 342.159 682.5 343.772C682.953 345.839 683.419 347.905 683.872 349.972 684.791 354.344 685.71 358.943 686.402 363.316 697.43 427.957 689.852 476.495 663.429 507.543 650.324 523.18 632.172 534.684 609.425 541.589 605.283 546.882 601.142 551.935 597.013 557 629.642 550.334 654.919 536.297 672.618 515.367 703.409 479.027 710.987 422.438 695.592 346.758 695.139 344.919 694.673 343.079 694.446 341Z" fill="#2F4A8A" fill-rule="evenodd"/><path d="M715.099 191C713.041 191 711.436 192.621 711.436 194.699L711.674 242.115 711.674 243.737C710.984 256.455 702.968 267.552 691.063 271.948 690.373 272.176 689.457 272.404 688.767 272.632L655.11 281.652C652.413 282.412 649.691 282.767 646.981 282.767 636.356 282.767 626.182 277.18 620.525 267.78 620.299 267.552 620.073 267.324 620.073 267.084L596.477 226.154C595.711 224.823 594.532 224.266 593.391 224.266 591.158 224.266 589.013 226.407 590.066 229.156 590.066 229.397 590.066 229.625 590.292 229.625L613.65 270.555C613.889 271.023 614.114 271.479 614.578 271.707 617.777 277.028 622.13 281.424 627.399 284.426 628.541 285.351 629.921 285.82 631.288 286.516 632.43 286.972 633.584 287.441 634.725 287.897 638.752 289.303 642.854 290 646.944 290 650.293 290 653.642 289.531 656.942 288.594L690.599 279.346 691.515 279.118C698.389 277.028 704.574 273.101 709.378 267.552 710.294 266.628 710.984 265.703 711.9 264.778 712.59 263.625 713.505 262.232 714.183 261.079 716.943 255.759 718.536 249.969 719 243.965L719 242.115 718.536 194.699C718.536 194.471 718.536 194.471 718.536 194.243 718.31 192.393 716.943 191 715.099 191Z" fill="#C3D9FB" fill-rule="evenodd"/><path d="M674.048 89.0126C670.163 89.0126 666.19 89.5299 662.204 90.6402L649.198 94.0973C647.149 94.5515 646 96.6207 646.687 98.7025 647.074 100.267 648.624 101.327 650.198 101.327 650.473 101.327 650.748 101.302 651.022 101.226L664.028 97.5417C667.327 96.6459 670.612 96.2295 673.836 96.2295 693.763 96.2295 711.004 112.493 711.004 133.702L711.916 302.076C711.916 304.145 713.515 305.76 715.564 305.76L715.564 305.987C717.388 305.76 718.987 304.145 718.987 302.303L718.3 133.702C718.113 108.38 697.723 89.0126 674.048 89.0126Z" fill="#C3D9FB" fill-rule="evenodd"/><path d="M600.703 107C600.284 107 599.828 107.076 599.358 107.24L586.153 110.681C557.446 118.509 544.013 150.955 558.829 176.493L589.629 229.196 614.416 271.537 622.978 286.726 643.82 322.16C644.277 323.307 645.672 324 646.827 324 647.524 324 648.222 323.773 648.679 323.534 650.531 322.387 651 320.319 650.074 318.479L631.312 286.487 629.46 283.272 620.429 267.856 565.311 172.812C552.816 151.421 563.929 124.257 588.005 117.815L601.21 114.135C605.802 113.101 604.559 107 600.703 107Z" fill="#C3D9FB" fill-rule="evenodd"/><path d="M709.603 261.013 709.603 267.687 709.829 319.047C709.829 325.721 705.479 331.486 699.041 333.328L689.863 335.864 677.013 339.308C675.681 339.699 674.335 339.876 673.015 339.876 667.973 339.876 663.258 337.201 660.719 332.634L634.78 287.961 631.561 282.195 629.499 283.343 627.437 284.504 623.075 287.04 621.013 288.188 650.157 338.627C654.947 346.941 663.887 352 673.166 352 675.442 352 677.73 351.697 679.993 351.054L683.664 350.133 688.254 348.758 695.144 346.916 702.26 345.074C713.966 341.844 722 331.246 722 319.047L721.774 261.013Z" fill="#2F4A8A" fill-rule="evenodd"/><path d="M325.755-56.9874C278.758-56.9874 267.533-19.947 232-16.4938L256.296 50 374.798 50 391.987-16.9601C362.657-26.8535 359.216-56.9874 325.755-56.9874Z" fill="#FFFFFF" fill-rule="evenodd"/><path d="M329.928-23 326.012 9.6255 336.257 10.9875 338-22.0878 329.928-23Z" fill="#FF6663" fill-rule="evenodd"/><path d="M317.15-14 316.012-2.90149 348.863-1.01294 350-9.74428 317.15-14Z" fill="#FF6663" fill-rule="evenodd"/><path d="M529.607 488.013 529.607 488.013C491.008 490.543 445 523.622 445 523.622L458.639 562C531 519.027 529.607 488.013 529.607 488.013Z" fill="#202632" fill-rule="evenodd"/><path d="M51.4479 492C51.4479 492 45 538.407 149.149 576.987L150.987 533.122C150.987 533.122 109.152 492.919 51.4479 492Z" fill="#202632" fill-rule="evenodd"/><path d="M257.191 283C257.191 283 248.23 284.841 234.674 288.069 228.23 289.683 220.88 291.751 212.838 293.819 187.338 300.957 156.553 310.856 137.019 322.596 110.374 338.711 79.5761 414.901 63.2645 459.566 62.8114 460.941 62.5849 462.101 62.1192 463.248 55.9143 480.739 52.0126 492.479 52.0126 492.479 52.0126 492.479 58.4441 493.866 68.3242 496.627L70.6274 497.321C84.6357 501.23 98.6566 505.833 112.212 511.356L113.81 512.276C125.075 516.879 135.647 522.402 145.527 529.086 147.365 530.46 148.737 531.381 149.655 532.074L150.813 532.995 151.266 533.222C152.651 534.382 154.023 535.529 155.168 536.677 156.087 537.37 156.553 538.064 157.471 538.758L143.69 626.234 135.647 676.636C182.958 694.82 232.925 703.987 283.005 703.987 312.205 703.987 341.455 700.873 370.227 694.593L373.449 693.672C411.584 685.161 448.348 671.113 482.356 652.009 480.518 644.871 478.681 637.734 476.831 630.37 470.865 606.436 464.194 581.796 458.455 561.998 455.246 550.258 451.331 538.758 446.737 527.472 446.737 527.018 446.511 526.551 446.284 526.324 446.045 525.63 445.592 525.177 445.365 524.483 445.126 524.256 445.126 524.256 444.9 524.016L446.045 523.323C446.511 523.096 447.656 522.642 448.122 522.175 448.575 521.948 449.041 521.721 449.494 521.482 466.032 512.743 482.809 504.912 500.266 498.002L500.732 497.775C503.954 496.627 507.163 495.48 510.385 494.32L511.304 493.866 512.915 493.399C518.189 491.558 523.714 489.944 528.987 488.342 528.987 488.342 524.859 477.523 518.654 461.407L517.27 458.179C497.51 410.299 457.763 321.675 434.567 315.004 422.849 311.549 410.666 308.548 399.414 305.786 393.435 304.185 387.696 303.025 382.171 301.65L369.534 298.889C353.223 295.434 342.197 293.365 342.197 293.365L318.296 290.364 257.191 283Z" fill="#FFFFFF" fill-rule="evenodd"/><path d="M411.763 368C411.612 368 411.449 368.076 411.361 368.252 408.156 372.623 408.156 380.446 407.691 386.19 407 393.094 407 399.984 407.465 406.887 408.835 419.069 412.743 430.797 419.165 441.378 425.361 451.733 432.926 460.929 437.978 471.964 445.092 487.37 443.709 503.016 441.183 519.342 441.057 521.043 442.189 522 443.269 522 444.099 522 444.89 521.446 445.092 520.262 447.153 506.694 448.987 492.435 444.865 478.867 441.183 467.593 434.535 457.944 428.339 448.508 421 437.473 414.352 426.438 411.826 412.871 410.217 404.355 409.991 395.613 410.908 386.883 411.361 381.126 413.661 373.996 412.278 368.479 412.278 368.202 412.014 368 411.763 368Z" fill="#C3D9FB" fill-rule="evenodd"/><path d="M514.401 454C501.63 455.41 489.309 457.985 477.213 461.958 464.667 465.469 452.809 470.851 441.862 477.86 441.012 478.514 441.55 479.987 442.375 479.987 442.425 479.987 442.487 479.987 442.549 479.974 453.946 475.054 465.354 469.21 476.988 465.469 489.084 461.727 501.63 458.921 514.401 457.511 516 457.511 516 454 514.401 454Z" fill="#C3D9FB" fill-rule="evenodd"/><path d="M346.159 459.013C345.466 459.24 345 459.933 345.239 460.626 349.146 480.42 353.293 499.974 356.734 519.767 360.414 540.481 363.413 561.195 365.707 582.375 365.947 583.295 365.947 583.976 365.947 584.896 366.4 589.498 366.867 593.873 367.32 598.474L367.32 600.088C369.854 631.165 370.774 662.696 370.08 693.987L373.307 693.067C373.987 662.003 373.067 630.699 370.547 599.634 370.08 594.339 369.627 589.271 369.16 584.216 369.16 583.749 368.934 583.295 368.934 582.829 366.867 562.342 364.094 542.095 360.653 521.608 360.414 521.154 360.414 520.461 360.414 519.994 356.973 499.747 353.053 479.499 347.533 459.933 347.533 459.466 347.306 459.24 346.84 459.013Z" fill="#C3D9FB" fill-rule="evenodd"/><path d="M382.513 487.688C382.513 487.688 400.832 497.5 409.075 490.2 417.557 482.9 445.5 421.513 445.5 421.513" stroke="#E6EEFF" stroke-width="0.622047" stroke-miterlimit="1" fill="none" fill-rule="evenodd"/><path d="M447.488 488.35C447.488 488.35 429.168 498.487 420.925 491.114 412.443 483.741 384.5 421.513 384.5 421.513" stroke="#E6EEFF" stroke-width="0.622047" stroke-miterlimit="1" fill="none" fill-rule="evenodd"/><path d="M384.72 421.5C384.72 421.5 359.5 348.513 413.381 348.513 467.487 348.513 445.483 421.5 445.483 421.5" stroke="#2F4A8A" stroke-width="1.19685" stroke-miterlimit="1" fill="none" fill-rule="evenodd"/><path d="M417.5 348.5C417.5 348.5 406.014 268.5 335.513 287.177" stroke="#2F4A8A" stroke-width="1.19685" stroke-miterlimit="1" fill="none" fill-rule="evenodd"/><path d="M251.754 458.487C251.754 458.487 178.513 348.81 254.5 303.5" stroke="#2F4A8A" stroke-width="1.19685" stroke-miterlimit="1" fill="none" fill-rule="evenodd"/><path d="M253.664 435C251.994 435 250.311 435.189 248.616 435.578 229.143 440.405 225.013 466.098 241.975 476.656 245.766 478.957 249.759 480 253.626 480 267.073 480 279 467.48 275.434 452.334 273.074 441.888 263.783 435 253.664 435Z" fill="#C3D9FB" fill-rule="evenodd"/><path d="M254.031 446C253.083 446 252.123 446.125 251.163 446.363 241.112 448.881 239.013 461.91 247.655 467.171 249.69 468.436 251.841 468.987 253.903 468.987 260.867 468.987 266.987 462.636 265.182 455.057 263.991 449.62 259.28 446 254.031 446Z" fill="#7EACEC" fill-rule="evenodd"/><path d="M311.01 248.013 210.013 288.751C210.013 288.751 245.75 362.397 249.906 367.012 251.132 368.449 253.14 368.941 255.326 368.941 260.151 368.941 265.811 366.546 265.811 366.546L265.811 366.546C265.811 366.546 261.895 380.591 267.655 388.648 273.428 396.932 346.987 460 346.987 460L311.01 248.013Z" fill="#C3D9FB" fill-rule="evenodd"/><path d="M313.013 261.013 346.354 459.987C346.354 459.987 370.953 387.303 372.792 378.331 374.858 369.359 369.114 358.081 369.114 358.081L369.114 358.081C369.114 358.081 370.261 358.257 371.81 358.257 374.669 358.257 378.876 357.677 379.922 354.401 381.534 349.575 381.987 278.264 381.987 278.264L313.013 261.013Z" fill="#C3D9FB" fill-rule="evenodd"/><path d="M255.787 243C255.787 243 231.205 261.884 227.983 271.092 225 280.54 296.694 391.987 296.694 391.987L330.704 378.175 369.987 385.541C369.987 385.541 369.534 262.35 367.004 260.509 359.414 254.984 351.372 250.833 342.649 247.844L255.787 243Z" fill="#2F4A8A" fill-rule="evenodd"/><path d="M324.983 368.013 306 381.647 346.664 459.987 352.988 378.647 324.983 368.013Z" fill="#2F4A8A" fill-rule="evenodd"/><path d="M331.677 378C331.399 378 331.158 378.062 330.701 378.175 323.527 381.13 316.124 382.277 309.646 386.828 309.013 387.027 309.33 387.988 309.925 387.988 309.976 387.988 310.039 387.988 310.103 387.963 317.506 386.591 324.908 382.726 331.855 379.995 338.332 382.04 345.507 382.277 352.213 383.636 352.289 383.648 352.365 383.661 352.428 383.661 353.645 383.661 354 381.803 352.682 381.591 346.661 380.219 339.486 379.771 333.008 378.175 332.324 378.062 331.969 378 331.677 378Z" fill="#000840" fill-rule="evenodd"/><path d="M257 142.013 257 282.981C257 282.981 278.039 296.987 312.329 296.987 321.351 296.987 331.292 296.016 342 293.581L339.471 142.013Z" fill="#FF9883" fill-rule="evenodd"/><path d="M280 204C280 204 284.381 285.925 342 293L340.611 204Z" fill="#202632" fill-rule="evenodd"/><path d="M257 283.013C257 283.013 295.832 361.061 331.204 378 336.489 350.078 340.163 321.918 342 293.544L257 283.013Z" fill="#FF9883" fill-rule="evenodd"/><path d="M343.946 84C320.249 84 284.577 86.592 275.656 90.7138 266.205 95.3415 251 118.416 251.694 149.571 252.161 167.348 260.211 188.349 276.577 205.899 276.577 205.899 299.467 238.987 339.656 238.987 343.997 238.987 348.539 238.608 353.284 237.748 368.249 235.207 377.006 208.44 379.997 177.969 380.464 174.277 380.691 170.344 380.918 166.425 382.987 127.646 376.312 87.0219 362.495 84.9483 358.735 84.3035 352.047 84 343.946 84Z" fill="#FF9883" fill-rule="evenodd"/><path d="M294.27 23C269.023 23 242.807 27.3657 225.989 41.6617 200.226 63.5535 204.597 115.602 204.597 115.602 204.597 115.602 189.933 110.05 175.95 110.05 164.611 110.05 153.739 113.696 151.472 126.895 149.166 139.096 153.538 151.764 162.974 160.054 162.974 160.054 131 219.723 195.174 239.521 205.177 242.587 214.26 243.987 222.335 243.987 256.753 243.987 272.828 218.525 263.707 187.927L280.488 162.136C290.843 151.083 294.749 135.639 290.843 121.128L290.843 121.128C290.843 121.128 300.859 124.182 313.469 124.182 331.51 124.182 354.866 117.961 361.896 87.7291 361.896 87.7291 372.251 93.4954 374.544 99.4762 378.916 111.463 380.302 126.895 381.221 136.106 381.221 136.106 401 118.832 398.241 101.091 394.789 79.2121 399.161 42.8225 362.362 31.9965 352.183 29.0061 323.888 23 294.27 23Z" fill="#202632" fill-rule="evenodd"/><path d="M256.25 136C255.826 136 255.401 136.013 254.977 136.025 228.085 137.187 216 170.384 235.838 188.84 241.818 194.474 248.959 196.987 255.951 196.987 271.844 196.987 286.988 183.989 286.201 165.092 285.539 148.683 272.318 136 256.25 136Z" fill="#FF9883" fill-rule="evenodd"/><path d="M67.9442 496.013C67.9442 496.013 35 581.407 59.1877 616.172 65.0801 624.658 82.5931 628 106.566 628 190.208 628 352.443 587.396 373.628 583.815L373.628 583.815C374.145 583.878 374.574 583.903 374.927 583.903 375.445 583.903 375.773 583.84 375.899 583.714 375.987 583.613 375.912 583.563 375.647 583.563 375.293 583.563 374.612 583.651 373.628 583.815L373.628 583.815C352.039 581.558 186.372 532.859 154.336 532.859 153.137 532.859 152.128 532.922 151.321 533.073 151.321 533.073 127.373 511.888 67.9442 496.013Z" fill="#FD9680" fill-rule="evenodd"/><path d="M512.981 493 512.981 493C458.562 512.665 445.017 523.765 445.017 523.765 445.017 523.765 274.201 517.518 224.837 511.512 220.611 510.929 216.373 510.638 212.16 510.638 188.025 510.638 164.607 520.09 147.013 537.411 233.54 544.165 438.439 632.987 499.248 632.987 505.071 632.987 509.573 632.176 512.516 630.402 554.987 604.491 512.981 493.013 512.981 493Z" fill="#FD9680" fill-rule="evenodd"/><path d="M429.102 500C422.427 500 405.701 503.913 395.981 507.827 389 510.828 382.949 515.919 379 522.15 379 522.15 413.115 525 433.191 525 436.745 525 439.854 524.911 442.248 524.696 459 523.316 439.93 517.528 439.93 517.528 439.93 517.528 448.529 513.146 447.599 510.36 447.395 509.701 445.892 509.448 443.675 509.448 435.815 509.448 419 512.677 419 512.677 419 512.677 435.28 501.355 431.089 500.19 430.605 500.063 429.93 500 429.102 500Z" fill="#FD9680" fill-rule="evenodd"/><path d="M323.669 145C323.58 145 323.504 145.012 323.427 145.012 320.87 145.234 319.013 148.825 319.471 153.326 319.687 157.556 321.774 160.988 324.153 160.988 324.293 160.988 324.433 160.975 324.585 160.951 327.142 160.729 329 156.917 328.758 152.65 328.313 148.296 326.125 145 323.669 145Z" fill="#202632" fill-rule="evenodd"/><path d="M363.779 142C363.688 142 363.609 142.012 363.531 142.012 360.914 142.246 359.013 145.843 359.247 150.339 359.716 154.477 361.956 157.988 364.482 157.988 364.56 157.988 364.638 157.988 364.716 157.975 367.333 157.754 369 154.157 368.753 149.661 368.531 145.301 366.292 142 363.779 142Z" fill="#202632" fill-rule="evenodd"/><path d="M380.53 167C373.573 167.445 368.013 170.727 368.47 173.588 368.914 176.089 373.319 177.988 379.121 177.988 379.426 177.988 379.743 177.988 380.061 177.976 380.53 174.466 380.759 170.727 380.987 167Z" fill="#FF6663" fill-rule="evenodd"/><path d="M314.335 172.012C313.705 172.012 313.063 172.024 312.421 172.071 305.291 172.71 300 175.738 300.239 178.541 300.63 181.178 305.215 182.988 310.934 182.988 311.791 182.988 312.672 182.953 313.567 182.858 320.697 182.432 325.987 179.404 325.761 176.388 325.345 173.845 320.394 172.012 314.335 172.012Z" fill="#FF6663" fill-rule="evenodd"/><path d="M344.225 140.013C343.726 140.013 343.239 140.368 343.239 141.002 343.015 157.677 347.792 175.29 351.659 191.508 347.568 192.193 343.464 192.193 339.372 192.891 338 193.361 338 195.213 339.372 195.67 340.969 195.898 342.578 196 344.187 196 347.593 196 350.998 195.53 354.403 194.744 355.314 194.515 355.988 193.589 355.988 192.663 353.942 184.097 351.896 175.519 350.299 166.953 348.927 158.146 347.343 149.34 345.285 140.774 345.085 140.254 344.649 140.013 344.225 140.013Z" fill="#202632" fill-rule="evenodd"/><path d="M254.11 149.013C251.096 149.013 247.714 151.293 245.485 153.204 241.318 156.924 239 162.503 239.697 168.312 240.165 173.892 243.167 178.783 248.018 181.331 249.842 182.248 252.16 183 254.288 183 256.504 183 258.531 182.197 259.582 179.943 260 179.115 259.671 178.274 258.936 178.274 258.847 178.274 258.759 178.287 258.657 178.312 258.1 178.287 257.555 178.274 257.036 178.274 256.352 178.274 255.694 178.287 255.06 178.287 252.831 178.287 250.881 178.083 248.715 176.223 245.016 173.204 243.395 168.312 244.32 163.433 245.016 159.713 247.334 156.682 250.336 154.592 252.654 153.204 255.187 152.962 257.036 150.873 257.277 150.643 257.277 150.172 257.036 149.943 256.15 149.28 255.149 149.013 254.11 149.013Z" fill="#202632" fill-rule="evenodd"/><path d="M325.059 208.012C323.139 208.012 322 210.671 324.118 211.941 327.238 213.882 330.916 214.988 334.607 214.988 336.241 214.988 337.889 214.765 339.486 214.306 341.988 213.518 341.22 210.153 338.941 210.153 338.755 210.153 338.557 210.176 338.359 210.224 337.133 210.471 335.895 210.6 334.694 210.6 331.659 210.6 328.737 209.824 326.149 208.294 325.765 208.094 325.393 208.012 325.059 208.012Z" fill="#202632" fill-rule="evenodd"/><path d="M146.987 533.013C143.109 533.013 139.257 533.302 135.518 533.844 127.447 535.23 118.227 537.524 112 543.043 112 543.043 112 543.509 112.227 543.509 121.688 541.442 129.986 537.297 139.674 536.377 141.644 536.226 143.627 536.15 145.598 536.15 152.835 536.15 160.047 537.146 167.108 539.136 186.71 544.202 205.846 550.641 225.209 556.386L341.196 590.887C341.385 590.962 341.575 590.987 341.752 590.987 343.419 590.987 343.987 588.291 342.118 587.673L219.676 551.094C200.086 545.122 180.016 537.524 159.731 534.071 155.513 533.353 151.231 533.013 146.987 533.013Z" fill="#202632" fill-rule="evenodd"/><path d="M399.64 521C392.368 521 385.121 521.521 378.013 522.563 378.013 522.805 378.013 522.805 378.013 523.033 386.058 523.796 393.952 524.253 401.934 524.253 403.594 524.253 405.253 524.228 406.926 524.19 416.631 524.431 426.121 524.889 435.839 525.587 456.415 527.214 477.004 529.997 497.352 533.936 497.504 533.975 497.631 533.987 497.77 533.987 499.328 533.987 499.987 531.586 498.277 531.153 478.398 527.214 458.265 524.431 438.145 522.805 427.743 522.106 417.328 521.407 406.926 521.178 404.493 521.064 402.06 521 399.64 521Z" fill="#202632" fill-rule="evenodd"/><path d="M172.964 341C172.347 341 171.893 341.753 172.057 342.256 187.015 375.264 174.59 407.13 167.924 440.59 161.712 471.527 157.112 502.703 154.113 534.104 154 535.36 154.983 536 156.016 536 157.049 536 158.146 535.36 158.259 534.104 161.485 496.287 167.685 458.696 176.43 421.569 182.415 397.035 192.987 363.123 173.67 341.339 173.431 341.1 173.179 341 172.964 341Z" fill="#C3D9FB" fill-rule="evenodd"/><path d="M147.43 318C145.581 318 143.731 318.382 142.127 319.145 141 319.561 141.674 321.04 142.568 321.04 145.25 321.04 147.932 321.468 150.394 321.884 152.635 322.52 154.644 324 156.873 324 157.547 324 158 323.364 158 322.728 157.106 320.197 153.53 319.145 151.068 318.509 149.904 318.173 148.667 318 147.43 318Z" fill="#C3D9FB" fill-rule="evenodd"/><path d="M434.8 314.013C433.176 314.013 431.397 314.861 430.143 315.916 428.185 317.317 426 319.194 426 321.779 426 322.383 426.49 323 427.194 323 427.301 323 427.409 322.987 427.528 322.949 429.272 322.254 430.585 320.609 432.328 319.901 434.287 318.963 436.472 318.731 437.558 317.086 437.988 316.379 437.773 315.44 437.343 314.977 436.627 314.296 435.743 314.013 434.8 314.013Z" fill="#C3D9FB" fill-rule="evenodd"/><path d="M60.3892 468.013C59.24 468.013 59.0126 469.845 60.1619 470.296 68.0045 473.509 76.9964 474.877 85.2936 477.173 93.3636 479.457 101.888 481.754 110.425 484.038 127.02 489.082 143.614 494.353 160.222 499.849 160.436 499.95 160.638 499.987 160.828 499.987 162.457 499.987 163 496.8 161.144 496.185 144.309 490.224 127.247 484.954 110.185 479.922 101.661 477.625 93.3636 475.341 84.8264 473.271 76.5291 471.213 68.4591 468.464 60.3892 468.013Z" fill="#C3D9FB" fill-rule="evenodd"/></g></svg>