<svg width="1607" height="1331" xmlns="http://www.w3.org/2000/svg" xmlns:xlink="http://www.w3.org/1999/xlink" overflow="hidden"><defs><clipPath id="clip0"><rect x="-109" y="-387" width="1607" height="1331"/></clipPath></defs><g clip-path="url(#clip0)" transform="translate(109 387)"><path d="M1134.65-270.523C1136.46-270.523 1138.33-270.414 1140.31-270.224 1141.1-270.224 1141.89-270.224 1143.05-269.817L1145.79-269.436C1146.58-269.436 1147.36-269.436 1148.55-269.029 1150.51-268.649 1152.87-267.861 1155.22-267.073L1157.2-266.666C1159.94-265.498 1163.09-264.303 1165.85-262.728 1167.02-261.94 1167.8-261.56 1168.59-261.152 1169.38-260.365 1170.57-259.984 1171.35-259.197L1173.71-257.622 1174.09-257.214C1174.88-256.834 1175.66-256.046 1176.45-255.259 1177.24-254.851 1178.02-254.063 1178.81-253.276 1180.38-251.728 1181.95-250.152 1183.53-248.577 1183.93-247.789 1184.72-247.382 1185.1-246.594 1186.29-245.426 1187.08-244.231 1187.86-243.063L1189.03-241.488C1190.6-239.125 1191.77-237.142 1192.96-234.779 1193.34-233.992 1193.75-233.204 1194.13-232.416L1194.53-232.036C1194.91-230.841 1195.32-230.053 1195.7-228.885L1195.7-228.478C1196.11-227.69 1196.11-226.903 1196.48-226.115 1196.89-225.735 1196.89-225.327 1196.89-224.54 1197.68-222.584 1198.06-220.601 1198.84-218.238 1198.84-217.451 1198.84-217.07 1199.25-216.283 1199.25-214.707 1199.63-213.132 1200.04-211.557 1200.04-209.982 1200.04-206.831 1200.04-204.468 1200.04-202.512 1200.42-201.317 1200.42-198.954 1200.42-198.954 1200.42-198.574 1200.42-198.574L1200.04-195.016C1200.04-193.848 1199.63-193.06 1199.25-191.865 1198.84-189.502 1198.06-187.547 1197.27-185.184 1196.89-183.989 1196.48-182.821 1196.11-181.626 1195.7-180.05 1195.32-179.263 1194.53-178.095L1193.34-175.732C1192.55-173.749 1190.98-171.794 1189.82-169.811L1188.65-168.235C1188.65-167.855 1188.65-167.448 1188.24-167.448L1187.08-165.492 1185.1-163.509C1183.93-161.934 1182.74-160.766 1181.57-159.598 1180.79-158.811 1180.38-158.403 1179.6-157.616L1178.02-156.04 1175.29-154.085C1172.93-152.102 1170.95-150.527 1168.59-149.359L1166.23-147.783 1163.49-146.588 1161.13-145.42 1156.8-143.845C1156.01-143.438 1154.84-143.057 1154.06-143.057 1152.49-142.27 1150.51-141.862 1148.93-141.482 1147.77-141.482 1146.98-141.075 1146.2-141.075 1145.03-140.694 1144.24-140.694 1143.46-140.694 1140.12-140.396 1136.79-140.124 1133.45-140.124 1132.07-140.124 1130.69-140.178 1129.31-140.287 1128.52-140.287 1127.73-140.694 1126.95-140.694 1125.76-140.694 1124.97-140.694 1124.18-141.075 1123.02-141.075 1122.23-141.482 1121.45-141.482 1118.3-142.27 1115.16-143.057 1112.01-144.225 1111.22-144.633 1110.44-144.633 1109.25-145.013L1106.51-146.208 1106.1-146.208C1105.31-146.588 1104.53-146.996 1103.36-147.376 1101.79-148.571 1099.84-149.739 1098.27-150.934 1097.07-151.314 1096.29-151.722 1095.5-152.509L1093.55-154.085C1092.36-154.872 1091.57-156.04 1090.4-156.828 1089.62-157.616 1088.83-158.403 1087.64-159.598L1085.69-161.934C1082.92-164.705 1080.97-167.855 1078.61-171.006 1078.21-172.174 1077.83-172.961 1077.04-173.749 1076.63-174.944 1075.85-176.112 1075.47-176.9 1075.06-178.095 1075.06-178.095 1074.68-178.882 1074.68-179.263 1074.27-179.67 1074.27-180.05 1074.27-180.458 1073.89-181.245 1073.49-181.626 1073.49-182.413 1073.11-183.201 1072.7-183.989 1072.7-183.989 1072.7-184.396 1072.7-184.776 1072.32-185.564 1071.92-186.352 1071.92-187.139 1071.54-188.715 1071.13-189.91 1070.75-191.485 1070.75-192.273 1070.34-193.06 1070.34-193.848 1069.96-195.423 1069.56-196.999 1069.56-198.574 1069.56-200.53 1069.18-202.893 1069.18-205.256 1069.18-207.211 1069.56-209.574 1069.56-211.937 1069.56-211.937 1069.56-212.345 1069.56-212.345 1069.56-213.512 1069.96-214.707 1069.96-215.495 1070.34-216.663 1070.34-217.858 1070.75-219.026 1071.13-221.389 1071.92-223.372 1072.32-225.735L1073.49-228.098C1073.49-228.885 1073.89-229.673 1074.27-230.053 1074.27-230.841 1074.68-231.248 1074.68-231.629 1075.06-232.036 1075.47-232.824 1075.47-233.204 1076.25-235.187 1077.42-236.762 1078.21-238.337L1079.78-240.7 1080.97-242.656C1081.76-243.851 1082.54-244.639 1083.33-245.426 1084.11-246.594 1084.49-247.382 1085.28-248.17 1086.07-248.957 1086.85-249.745 1087.64-250.94 1091.98-254.851 1096.29-258.409 1101.38-261.56L1103.74-262.728 1106.1-263.923 1108.87-265.091C1110.03-265.878 1111.6-266.286 1113.18-267.073 1113.96-267.454 1114.75-267.454 1115.54-267.861L1118.3-268.649C1119.87-269.029 1121.82-269.436 1123.8-269.436L1126.54-269.817 1129.31-270.224C1131.07-270.414 1132.83-270.523 1134.65-270.523ZM1135.38-328.973C1130.88-328.973 1126.35-328.674 1121.82-328.104 1114.75-327.316 1109.25-320.607 1110.03-313.518L1110.03-312.35C1110.03-311.563 1110.03-311.155 1110.03-310.368 1110.03-305.262 1107.29-300.536 1102.58-298.173L1101.38-297.792 1097.48-296.217 1093.93-294.642 1093.14-294.234C1091.35-293.528 1089.48-293.175 1087.64-293.175 1083.46-293.175 1079.48-294.995 1077.04-298.553 1074.33-302.247 1070.23-304.094 1066.03-304.094 1063.51-304.094 1060.91-303.442 1058.55-302.111L1057.38-301.323C1050.72-295.81 1044.43-289.508 1038.92-282.419 1036.16-278.888 1034.99-274.543 1036.56-270.224 1036.94-269.029 1037.35-267.861 1038.14-266.666 1038.52-265.878 1039.3-264.71 1040.09-264.303L1041.28-263.135C1046.38-259.197 1048.36-252.488 1045.59-246.594 1044.43-243.851 1043.23-241.081 1042.07-238.337 1041.66-236.762 1040.88-235.187 1039.71-233.992 1038.92-233.204 1038.14-232.824 1037.35-232.036 1036.56-231.629 1035.37-231.248 1034.59-230.841 1033.8-230.461 1033.42-230.053 1032.63-230.053 1031.85-229.863 1031.06-229.755 1030.28-229.755 1029.49-229.755 1028.7-229.863 1027.92-230.053L1023.2-230.053C1017.29-228.885 1012.98-224.159 1012.19-218.238 1011-209.574 1011-200.53 1012.19-191.865 1012.9-184.912 1018.51-179.779 1025.23-179.779 1026.1-179.779 1026.99-179.887 1027.92-180.05L1029.87-180.05C1032.63-180.05 1034.99-178.882 1037.35-177.687 1038.14-177.307 1038.52-176.519 1038.92-176.112 1040.5-174.944 1041.66-173.369 1042.45-171.386 1043.23-168.643 1044.43-165.872 1045.59-163.129 1048.36-157.616 1046.78-151.722 1042.85-147.783L1041.28-146.588C1040.09-145.801 1038.92-144.633 1038.14-143.057 1037.35-142.27 1036.94-141.075 1036.56-139.499 1036.56-139.119 1036.56-138.712 1036.16-138.331L1036.16-137.136C1036.16-136.756 1036.16-136.349 1036.16-135.968L1036.16-135.561 1036.16-133.605C1036.56-132.818 1036.56-132.41 1036.94-131.623 1036.94-131.623 1036.94-131.242 1036.94-131.242 1037.35-130.835 1037.35-130.047 1037.73-129.667L1037.73-129.26C1038.14-128.879 1038.14-128.472 1038.52-128.092 1044.02-121.003 1050.31-114.702 1057.38-109.188 1059.69-107.205 1062.54-106.336 1065.25-106.336 1065.79-106.336 1066.3-106.363 1066.82-106.445 1067.98-106.445 1069.18-106.825 1070.34-107.232 1073.11-108.02 1075.06-109.595 1076.63-111.551L1077.83-113.126C1079.4-114.294 1080.97-115.489 1082.92-116.277L1087.64-117.445C1089.62-117.065 1091.57-116.657 1093.14-115.869 1095.91-114.702 1098.65-113.534 1101.38-112.746 1103.74-111.551 1106.1-109.976 1107.67-107.613 1108.08-106.825 1108.87-106.037 1108.87-104.869 1110.03-102.887 1110.03-100.524 1109.65-98.1607 1108.87-91.0717 1113.18-84.3902 1120.25-82.8148L1121.45-82.8148C1126.16-82.4074 1130.47-82.0272 1134.81-82.0272 1139.12-82.0272 1143.84-82.4074 1148.15-82.8148 1151.29-83.1951 1154.06-84.3902 1156.42-86.7531 1157.2-87.9211 1157.99-88.7087 1158.37-89.9038 1158.78-90.284 1159.15-90.6915 1159.15-91.4791 1159.94-93.4347 1160.35-95.7977 1159.94-98.1607 1159.94-98.9483 1159.94-99.736 1159.94-100.143 1159.94-106.037 1163.49-111.171 1168.59-113.126 1171.35-113.914 1174.09-115.082 1176.86-116.277 1178.62-117.255 1180.57-117.744 1182.55-117.744 1184.5-117.744 1186.48-117.255 1188.24-116.277 1189.44-115.869 1190.22-115.082 1190.98-114.702 1191.39-114.294 1191.77-113.914 1192.17-113.534 1192.55-113.126 1192.96-112.746 1193.34-112.339 1195.81-108.645 1199.79-106.798 1203.99-106.798 1206.49-106.798 1209.06-107.477 1211.42-108.808L1212.62-109.595C1215.76-112.339 1219.28-115.489 1222.43-118.64 1225.57-121.791 1228.34-124.941 1231.08-128.472 1233.84-132.03 1234.63-136.349 1233.44-140.694 1233.44-141.482 1233.06-141.862 1232.65-142.65 1232.65-143.057 1232.27-143.845 1231.86-144.225 1231.48-145.013 1230.7-145.801 1229.91-146.588L1228.72-147.783C1228.34-148.164 1227.93-148.164 1227.55-148.571 1223.22-152.509 1222.05-158.811 1224.41-163.917 1225.57-166.66 1226.77-169.43 1227.93-172.174 1229.64-177.687 1234.66-181.082 1240.05-181.082 1240.86-181.082 1241.68-181.001 1242.46-180.838 1243.01-180.784 1243.55-180.757 1244.09-180.757 1246.69-180.757 1249.24-181.517 1251.52-182.821 1252.3-183.201 1252.68-183.608 1253.47-183.989L1254.26-185.184C1254.66-185.184 1254.66-185.564 1255.04-185.971 1256.61-187.927 1257.81-190.29 1257.81-192.653 1258.97-201.725 1258.97-210.362 1257.81-219.433L1257.81-218.646C1257.81-219.814 1257.4-221.389 1257.02-222.584 1256.61-223.372 1256.23-223.752 1255.83-224.54 1255.45-225.327 1255.04-225.735 1254.26-226.522L1253.47-227.31C1253.09-227.69 1252.68-227.69 1252.68-228.098L1251.11-228.885C1250.32-229.673 1249.16-230.053 1247.97-230.053L1247.18-230.461C1246.39-230.651 1245.61-230.76 1244.82-230.76 1244.04-230.76 1243.25-230.651 1242.46-230.461L1239.32-230.461C1236.96-230.841 1234.63-231.629 1232.65-232.824L1231.48-233.611C1231.08-233.992 1230.7-234.399 1230.7-234.779 1229.91-235.187 1229.5-235.974 1229.12-236.355L1228.34-237.93C1227.93-238.337 1227.93-238.718 1227.93-239.125 1227.93-239.505 1227.55-239.505 1227.55-239.913 1226.77-242.656 1225.57-245.019 1224.41-247.382 1224.41-247.789 1224-248.17 1224-248.577 1223.22-250.533 1223.22-252.488 1223.22-254.471 1223.62-255.639 1224-257.214 1224.79-258.789 1225.19-260.365 1225.98-261.94 1227.15-263.135 1227.55-263.515 1227.93-263.923 1228.34-263.923L1228.72-263.923 1229.91-265.091C1231.08-265.878 1231.86-267.073 1232.65-268.241 1232.65-269.029 1233.06-269.436 1233.44-270.224 1233.44-270.604 1233.84-271.392 1233.84-272.18 1234.63-276.118 1233.84-280.056 1231.48-283.207 1228.34-286.765 1225.57-289.916 1222.43-293.066 1219.28-296.217 1216.14-299.34 1212.62-302.111 1210.31-303.849 1207.38-304.936 1204.43-304.936 1203.34-304.936 1202.26-304.8 1201.2-304.474L1199.63-304.066C1197.68-303.279 1196.11-302.111 1194.53-300.536 1194.13-300.128 1193.75-299.748 1193.34-299.34 1191.77-297.005 1189.82-295.429 1187.46-294.642 1186.29-294.234 1185.51-293.854 1184.72-293.854L1180.79-293.854C1180-293.854 1179.22-294.234 1178.81-294.234L1177.24-295.022 1175.66-295.81C1174.88-296.217 1174.09-296.597 1173.31-296.597 1172.14-297.005 1170.16-297.792 1169-298.553 1163.49-300.536 1159.94-306.049 1160.35-311.943L1160.35-312.731C1161.51-319.82 1156.8-326.121 1150.13-327.696 1149.72-328.104 1149.34-328.104 1148.93-328.104 1144.43-328.674 1139.91-328.973 1135.38-328.973Z" fill="#90D1CB" fill-rule="evenodd"/><path d="M636.48-358.966C583.87-358.966 540.965-316.116 540.965-262.546L540.965-124.229C540.965-108.641 528.298-95.9806 513.689-95.9806 498.094-95.9806 486.414-108.641 486.414-124.229L486.414-141.757C486.414-194.375 443.543-236.237 391.886-236.237 339.242-236.237 296.371-194.375 296.371-141.757L296.371 212.781C296.371 226.429 285.644 237.116 272.024 237.116 259.356 237.116 247.643 226.429 247.643 212.781L247.643 189.4C247.643 152.404 218.426 122.181 181.378 122.181 144.329 122.181 114.125 152.404 115.113 189.4L115.113 405.655C115.113 418.316 103.399 429.99 90.7318 429.99 77.1111 429.99 66.3848 418.316 66.3848 405.655 66.3848 377.407 42.9911 354.978 15.7156 354.978-11.5939 354.978-34 377.407-34 405.655L-34 843 1421 843 1421 418.316C1421 383.227 1392.74 354.978 1358.62 354.978 1323.54 354.978 1295.28 383.227 1295.28 418.316L1295.28 440.711C1295.28 456.299 1282.61 467.973 1267.97 467.973 1253.36 467.973 1240.7 456.299 1240.7 440.711L1240.7 15.0403C1240.7-28.7963 1204.63-64.8049 1160.78-64.8049 1116.92-64.8049 1080.89-28.7963 1080.89 15.0403L1080.89 41.349C1080.89 65.7178 1061.38 84.1986 1037.99 84.1986 1013.64 84.1986 995.114 65.7178 995.114 41.349L995.114-177.8C995.114-229.43 952.243-272.28 900.586-272.28 847.976-272.28 805.071-229.43 805.071-177.8L805.071-165.139C805.071-145.671 788.522-129.096 769.01-129.096 748.545-129.096 731.996-145.671 731.996-165.139L731.996-262.546C731.996-316.116 689.124-358.966 636.48-358.966Z" fill="#C3D9FB" fill-rule="evenodd"/><path d="M-60.5763 894.034C-82.966 894.034-82.966 927-60.5763 927L1426.43 927C1435.21 927 1443 919.241 1443 910.5 1443 900.81 1435.21 894.034 1426.43 894.034Z" fill="#F8DBC4" fill-rule="evenodd"/><path d="M-60.5795 894.034C-82.966 894.034-82.966 928-60.5795 928L584 928 584 894.034Z" fill="#4869B1" fill-rule="evenodd"/><path d="M583.483 877C574.983 877 566.483 880.378 559.648 887.167 547 899.732 547 920.977 559.648 933.542 566.483 939.825 574.983 942.966 583.483 942.966 592.017 942.966 600.517 939.825 607.352 933.542 620 920.977 620 899.732 607.352 887.167 600.517 880.378 592.017 877 583.483 877Z" fill="#FFB172" fill-rule="evenodd"/><path d="M1259.43 112C1097.68 112 1059 843 1059 843L1354.98 843C1354.98 843 1574.97 192.443 1467.88 170.053 1464.28 169.27 1460.67 168.896 1457.13 168.896 1356.07 168.896 1282.15 474.097 1278.17 474.097 1278.14 474.097 1278.07 474.029 1278.07 473.893 1276.09 463.174 1372.5 127.211 1267.35 112.578 1264.67 112.204 1262.05 112 1259.43 112Z" fill="#90D1CB" fill-rule="evenodd"/><path d="M314.092-4.96592C251.747-4.96592 202.034 44.7857 202.034 106.226L202.034 553.854C202.034 615.294 251.747 666 314.092 666L1123.9 666C1185.29 666 1234.97 615.294 1234.97 553.854L1234.97 106.226C1234.97 44.7857 1185.29-4.96592 1123.9-4.96592Z" fill="#FFFFFF" fill-rule="evenodd"/><path d="M247 34.0341 247 574 1190.97 574 1190.97 34.0341Z" fill="#7EACEC" fill-rule="evenodd"/><path d="M530.034 666.034 530.034 774.966 907 774.966 907 666.034Z" fill="#E3E9F7" fill-rule="evenodd"/><path d="M500.044 767C458.132 767 423.034 801.103 423.988 843L1014 843C1014 801.103 979.857 767 937.91 767Z" fill="#FFFFFF" fill-rule="evenodd"/><path d="M486.404 645.034C462 646.974 462 683.026 486.404 684.966L955.596 684.966C979.966 683.026 979.966 646.974 955.596 645.034Z" fill="#2F4A8A" fill-rule="evenodd"/><path d="M143.172 708.034C124.614 708.034 108.034 723.539 108.034 742.98 108.034 798.317 153.918 843 209.558 843L255.442 843C312.072 843 356.966 798.317 356.966 742.98 356.966 723.539 341.376 708.034 321.828 708.034Z" fill="#FFFFFF" fill-rule="evenodd"/><path d="M241.368 505.034C240.858 505.034 240.347 505.068 239.837 505.102 202.843 507.045 202.843 605.58 202.843 605.58 202.843 605.58 175.719 564.85 154.822 564.85 149.445 564.85 144.476 567.543 140.495 574.359 126.201 597.502 139.474 620.679 148.799 632.54L148.799 632.54C142.4 626.336 132.599 618.872 122.287 618.872 116.638 618.872 110.852 621.122 105.441 627.018 84 651.422 164.828 707.012 164.828 707.012L285.611 708C285.611 708 384 626.064 359.632 610.454 355.617 607.693 351.431 606.568 347.21 606.568 325.838 606.568 304.125 635.812 304.125 635.812 304.125 635.812 368.413 548.013 330.432 541.196 328.458 540.787 326.484 540.583 324.579 540.583 289.491 540.583 263.217 604.591 263.217 604.591 263.217 604.591 276.456 505.034 241.368 505.034Z" fill="#90D1CB" fill-rule="evenodd"/><path d="M-75.9011 833.034C-82.7462 833.034-89.5574 833.137-96.3685 833.446L-98.3437 833.446C-111.966 833.446-111.966 853.108-98.3437 853.108L1389.95 853.108C1402.93 853.108 1416.38 853.966 1429.94 853.966 1436.75 853.966 1443.56 853.76 1450.37 853.108L1453.3 853.108C1465.97 853.108 1465.97 833.446 1453.3 833.446L-34.9662 833.446C-48.6225 833.446-62.2788 833.034-75.9011 833.034Z" fill="#2F4A8A" fill-rule="evenodd"/><path d="M895.339 116.364C909.164 125.406 930.109 133.364 933.338 151.225 933.988 154.667 933.562 158.334 932.474 161.988 889.521 140.473 844.829 120.242 801 99.5757 802.94 94.412 807.043 90.5334 812.01 88.8121 827.125 83 847.206 94.412 859.08 98.7151 863.172 92.0424 868.576 86.8787 877.86 86.8787 892.324 87.3149 901.82 101.509 895.339 116.364Z" fill="#2F4A8A" fill-rule="evenodd"/><path d="M880.092 96.2252C895.988 96.6518 889.675 124.988 873.982 118.932 862 114.393 868.981 96 880.092 96.2252Z" fill="#FFFFFF" fill-rule="evenodd"/><path d="M715.268 134.818C717.432 129.172 721.13 120.708 725.029 112.47 733.067 95.5427 739.797 76.0119 754.98 76.6657 762.364 77.0936 772.352 80.7787 782.113 84.6896 791.887 88.3747 800.781 93.3673 809.686 97.4922 848.531 116.155 876.532 133.297 916.91 151.092 925.804 155.003 934.923 159.77 943.603 164.334 955.541 170.837 968.346 176.697 968.786 187.11 969 192.103 964.874 198.831 962.27 205.773 959.452 212.716 955.755 219.016 953.151 224.662 946.647 238.107 940.571 250.482 935.137 261.977 921.904 289.543 911.916 313.627 900.407 339.886 889.563 364.837 879.135 391.75 866.77 418.009 856.128 440.357 845.927 472.477 829.435 486.147 816.19 497 798.177 490.272 776.905 481.808 735.017 465.095 698.764 444.696 660.134 426.473 651.014 422.134 640.171 417.569 630.611 412.802 619.541 407.37 608.912 401.082 606.95 394.353 605 387.839 610.434 374.823 615.416 363.755 620.409 352.035 625.843 341.181 630.397 331.422 660.134 267.837 686.827 199.699 715.054 135.472 715.054 135.246 715.268 135.032 715.268 134.818Z" fill="#FFB172" fill-rule="evenodd"/><path d="M654 326.518C654 329.98 651.028 335.387 647.638 340.368 646.362 342.538 644.04 346 641.915 344.921 640.012 343.83 641.497 339.289 642.345 337.771 644.458 333.016 647.43 328.676 651.237 325.213 652.305 325 653.362 325.652 654 326.518Z" fill="#FFFFFF" fill-rule="evenodd"/><path d="M652.602 343.45C658 345.007 652.602 356.988 648.659 354.324 647 352.998 647.625 346.333 649.693 344.119 650.534 343.231 651.568 343 652.602 343.45Z" fill="#FFFFFF" fill-rule="evenodd"/><path d="M633.328 370.45C635.38 370.888 636 374.002 635.38 376.884 635.177 379.329 633.328 383.988 631.063 382.662 629.62 381.324 629 379.11 629.417 377.116 629.823 374.002 630.86 370 633.328 370.45Z" fill="#FFFFFF" fill-rule="evenodd"/><path d="M738.922 168.045C740.657 163.711 743.698 156.765 746.953 150.269 753.238 136.614 758.655 121 769.941 121 775.572 121 782.736 123.6 789.674 126.426 796.826 129.027 803.336 132.708 809.835 135.961 838.038 149.403 858.424 162.191 887.697 175.193 894.207 178.007 900.705 181.474 907.002 184.953 915.888 189.715 925 193.835 925 202.289 925 206.196 921.745 211.611 919.583 217.251 917.409 222.879 914.593 227.866 912.419 232.414 907.216 243.255 902.44 253.229 897.89 262.55 887.483 284.66 879.452 304.169 870.126 325.197 861.24 345.348 852.995 367.03 843.027 388.058 834.569 406.048 825.885 431.838 813.315 443.106 803.336 452 790.102 447.227 774.491 441.159 744.126 429.024 717.883 413.849 689.691 400.621 682.967 397.38 675.162 394.126 668.224 390.433 660.193 386.539 652.388 381.979 651.307 376.778 650 371.577 654.562 361.176 658.459 352.068 662.367 343.187 666.703 334.079 670.386 326.278 694.253 275.125 715.934 220.279 738.708 168.472 738.708 168.472 738.922 168.259 738.922 168.045Z" fill="#FFFFFF" fill-rule="evenodd"/><path d="M771.99 154.44C774.619 152.488 777.464 149.44 780.536 146.833 783.381 144.44 786.67 140.75 790.175 139.881 791.927 139.226 793.896 140.31 794.556 142.048 794.988 145.964 786.67 153.131 784.917 155.31 781.629 159.44 778.124 163.345 774.175 166.821 772.422 168.131 770.454 168.786 768.485 169 763 168.345 763 156.833 763 150.31 763 146.619 763.444 139.226 766.949 139.012 771.99 139.012 771.546 149.44 771.99 154.44Z" fill="#90D1CB" fill-rule="evenodd"/><path d="M730.709 240.214C733.256 238.262 736.012 235.429 738.988 232.607 741.744 230.429 744.93 226.738 748.326 225.655 750.023 225.214 751.93 226.31 752.36 228.048 752.988 231.738 744.93 239.131 743.233 241.083 740.047 245.429 736.651 249.119 732.826 252.595 731.128 253.905 729.221 254.774 727.314 254.988 722 254.333 722 242.821 722 236.298 722 232.607 722.43 225.214 725.826 225 730.709 225 730.279 235.429 730.709 240.214Z" fill="#90D1CB" fill-rule="evenodd"/><path d="M744.487 201.786C747.791 199.601 751.311 196.115 755.495 193.071 759.678 190.014 763.633 186.528 768.033 185.227 769.577 185 771.12 186.098 771.554 187.615 772 190.456 766.719 194.372 765.61 195.471 760.992 199.828 755.929 203.744 750.865 207.672 747.574 210.072 741.401 213.988 738.543 208.974 737 206.359 737.446 200.043 737.88 195.685 738.326 191.543 739.64 187.615 742.51 188.486 745.584 189.358 744.27 197.429 744.487 201.786Z" fill="#90D1CB" fill-rule="evenodd"/><path d="M688.104 324.786C691.332 322.613 694.996 318.9 698.86 316.071 702.948 313.014 706.824 309.313 711.124 308.227 712.62 308 714.128 308.872 714.776 310.627 714.988 313.456 710.04 317.372 708.968 318.244 704.244 322.613 699.508 326.744 694.348 330.672 691.12 333.072 685.312 336.988 682.52 331.986 681.012 329.144 681.224 323.043 681.872 318.685 682.296 314.543 683.38 310.627 686.384 311.498 689.4 312.585 688.104 320.429 688.104 324.786Z" fill="#90D1CB" fill-rule="evenodd"/><path d="M716.284 271C714.132 271 712.619 274.104 711.106 277.195L710.456 278.529C710.031 279.196 709.593 280.081 709.168 280.966L708.305 280.517 706.579 279.85C704.416 278.965 702.265 278.311 699.889 278.08 697.513 278.08 696.863 279.196 696.65 280.081 696 282.954 700.314 285.609 705.929 288.046 705.716 288.713 705.504 289.149 705.279 289.816 703.778 293.138 702.478 296.678 703.34 298.666 703.553 299.333 704.203 299.77 705.066 300L705.504 300C708.092 300 710.681 295.793 713.27 290.701 714.995 291.138 716.721 291.586 718.234 292.023 719.31 292.471 720.598 292.689 721.898 292.908 724.274 292.908 725.137 291.804 725.563 290.919 726 288.264 722.548 286.712 719.31 285.161L718.009 284.724C717.371 284.276 716.721 284.057 716.071 283.621 716.721 281.851 717.371 280.081 717.797 278.529 718.447 276.977 719.96 272.103 716.934 271Z" fill="#7EACEC" fill-rule="evenodd"/><path d="M796.647 156.012 791.012 167.776C793.39 169.09 795.779 170.177 797.955 171.276 828.985 186.527 858.72 203.976 888.668 219.455 892.58 221.414 897.359 224.244 901.259 226 903.209 222.286 905.384 218.583 907.12 214.439 907.56 213.997 907.774 213.352 907.988 212.695 903.863 210.294 899.523 208.121 895.398 206.15 876.518 195.903 859.802 186.969 840.494 177.379 828.771 171.491 816.621 166.032 804.03 159.714L796.647 156.012Z" fill="#2F4A8A" fill-rule="evenodd"/><path d="M782.856 185 777.012 196.718 779.608 198.013C810.333 213.201 839.979 230.338 869.838 245.966 875.682 248.997 883.47 253.774 887.156 253.988 889.1 249.864 891.044 245.527 893 241.189 888.021 237.932 882.178 235.33 876.772 232.513 857.937 222.53 841.057 213.641 821.807 203.872 810.119 198.239 798.218 192.594 785.452 186.307L782.856 185Z" fill="#2F4A8A" fill-rule="evenodd"/><path d="M768.895 212.012 763.012 223.504C766.497 225.239 769.767 226.974 772.81 228.495 803.754 243.47 833.816 260.821 863.662 276.223 866.491 277.744 869.319 279.479 872.374 281 874.988 276.662 877.386 272.099 880 267.761 876.73 266.026 873.675 264.505 870.632 262.995 851.681 253.013 834.687 243.897 815.294 234.354 803.528 228.709 791.331 223.076 778.693 216.777 775.65 215.268 772.595 213.747 768.895 212.012Z" fill="#2F4A8A" fill-rule="evenodd"/><path d="M754.893 241.012 749.012 252.782 754.02 255.35C785.23 270.121 815.124 287.238 845.234 302.431 848.509 304.143 852.429 306.499 855.932 308L864 295.374C860.067 293.228 855.932 291.306 851.999 289.383 833.233 279.324 816.212 270.543 796.788 261.129 785.014 255.35 772.786 250.004 760.14 243.79L754.893 241.012Z" fill="#2F4A8A" fill-rule="evenodd"/><path d="M742.614 266.012 737 277.728 742.614 280.544C773.249 295.729 803.022 312.863 832.581 328.477 836.682 330.437 841.422 333.253 845.098 334.988 847.249 331.079 849.412 327.395 851.137 323.498 851.563 322.844 851.787 322.191 852 321.537 847.899 319.375 843.585 317.2 839.484 315.038 820.715 305.057 803.884 296.157 784.678 286.402 773.036 280.758 761.17 275.126 748.654 268.828L742.614 266.012Z" fill="#2F4A8A" fill-rule="evenodd"/><path d="M728.859 295 723 306.659 724.093 307.309C755.113 322.207 785.052 339.47 814.777 354.794 820.636 357.821 828.444 362.562 832.141 363 834.09 358.684 836.039 354.581 838 350.266 833.008 347.026 827.149 344.436 821.729 341.622 802.844 331.477 785.92 322.633 766.618 313.138 754.9 307.309 742.753 301.917 730.167 295.65L728.859 295Z" fill="#2F4A8A" fill-rule="evenodd"/><path d="M714.645 322.012 709.012 333.668C711.829 335.17 714.645 336.47 717.248 337.759 748.066 352.867 777.779 370.139 807.729 385.46 810.546 386.749 813.589 388.475 816.405 389.988 819.008 385.673 821.611 381.358 824 376.83 820.957 375.317 817.701 373.804 814.67 372.291 795.797 362.147 778.872 353.305 759.559 343.812 747.84 337.983 735.908 332.581 723.108 326.327 720.505 324.814 717.688 323.525 714.645 322.012Z" fill="#2F4A8A" fill-rule="evenodd"/><path d="M700.857 351 695 362.885 698.683 364.613C729.704 379.741 759.419 396.811 789.347 412.377 792.602 414.105 796.499 416.26 799.98 417.988L808 405.026C804.091 403.085 799.98 401.132 796.071 398.977 777.204 389.034 760.5 380.179 741.193 370.662 729.49 364.838 717.336 359.428 704.766 352.941L700.857 351Z" fill="#2F4A8A" fill-rule="evenodd"/><path d="M632.012 434.012 635.114 445.686C636.002 449.081 636.89 452.477 637.559 455.233 638.009 456.081 638.228 457.57 639.334 458L639.566 458C641.998 450.988 643.555 443.349 646 434.012Z" fill="#4869B1" fill-rule="evenodd"/><path d="M638.386 400C636.632 400 634.661 400 632.907 400.213 630.936 400.213 628.965 400.652 627.199 401.305 625.889 403.036 625.012 405.194 625.012 407.578 625.445 409.748 626.105 411.907 626.766 413.851 628.521 420.564 630.275 427.276 632.029 433.988L645.632 433.775C645.632 433.561 645.848 433.122 645.848 432.695 647.386 426.849 649.14 420.789 650.678 414.717 651.339 412.559 651.772 410.614 651.988 408.444 651.111 406.06 649.573 403.676 648.047 401.731 646.292 400.213 641.246 400 638.386 400Z" fill="#C3D9FB" fill-rule="evenodd"/><path d="M647.273 402.802C645.742 404.317 644.212 405.608 642.467 406.697 641.164 405.182 639.848 403.453 638.76 401.724 637.23 402.375 636.357 405.182 634.17 406.259 632.867 404.744 631.552 403.453 630.248 401.937 628.276 403.24 627.845 406.259 625.658 406.911 625.012 403.453 625.012 399.782 625.442 396.324 626.973 343.572 627.845 289.966 629.591 237.012 638.533 237.012 647.046 237.225 655.558 237.651 656 239.167 656 240.896 655.785 242.625 654.47 293.211 653.597 345.3 652.294 396.324 652.294 400.208 652.294 404.104 651.852 407.775 649.891 407.988 648.791 404.317 647.273 402.802Z" fill="#666666" fill-rule="evenodd"/><path d="M656.122 237.524C646.457 239 638.776 237.098 630.228 236.683 630 231.634 632.633 227 637.021 224.268 646.686 219 657 226.585 656.122 237.524Z" fill="#AFDCDD" fill-rule="evenodd"/><path d="M629.142 262.568C629.353 260.223 628.932 258.099 627.855 256.173 627.855 255.111 628.709 254.259 629.142 253.197 627 250.642 629.353 248.716 629.353 246.803 629.353 245.951 628.709 245.099 628.709 244.457 628.709 242.963 629.576 242.333 629.786 240.839 629.997 239.556 629.142 238.704 629.786 237.642 634.059 237 638.543 237 643.039 237.642 647.312 237.642 651.585 237.852 656.068 238.284 657.988 240.839 656.279 243.605 656.279 245.951 656.279 247.444 656.923 248.716 656.923 250.21 656.923 252.346 655.003 254.259 656.923 257.667 656.502 259.371 654.792 260.433 655.214 262.568 655.003 262.778 654.792 262.988 654.792 262.778 646.234 262.778 637.478 262.988 629.142 262.568Z" fill="#4869B1" fill-rule="evenodd"/><path d="M830.06 498C828.199 498 826.434 498.865 825.349 500.476L804.668 530.754C804.453 531.192 804.239 531.405 804.012 531.832L797.703 527.733C797.035 527.188 796.343 526.963 795.699 526.963 792.992 526.963 791.012 531.002 794.005 532.921L794.005 532.696 822.963 552.384C823.583 552.81 824.216 552.988 824.812 552.988 827.531 552.988 829.523 549.138 826.661 547.196L819.695 542.434C820.125 541.995 820.339 541.782 820.566 541.356L841.247 511.291C842.988 508.697 842.332 505.025 839.72 503.082L833.411 498.971C832.338 498.32 831.181 498 830.06 498Z" fill="#2F4A8A" fill-rule="evenodd"/><path d="M811.796 480.012C806.916 480.012 805.012 486.673 809.642 489.014L834.197 505.889 858.966 522.752C859.93 523.616 861.001 523.988 862.037 523.988 865.191 523.988 868 520.519 866.357 517.063 857.883 496.683 854.193 490.766 847.671 486.169 840.934 481.56 834.197 480.252 812.261 480.024 812.094 480.012 811.939 480.012 811.796 480.012Z" fill="#2F4A8A" fill-rule="evenodd"/><path d="M957.697 304.012C955.883 304.012 954.118 304.871 953.032 306.473L939.969 325.608C938.012 328.187 938.668 331.625 941.496 333.344L954.13 341.94C955.096 342.67 956.194 343 957.291 343 959.128 343 960.954 342.058 962.183 340.433L975.246 321.522C976.988 318.943 976.344 315.293 973.731 313.573L960.882 304.966C959.892 304.318 958.782 304.012 957.697 304.012Z" fill="#2F4A8A" fill-rule="evenodd"/><path d="M974.016 293C973.161 293 972.282 293.284 971.535 293.77L971.535 293.983 960.108 305.009C959.012 306.738 959.446 308.906 961.204 309.984L969.115 315.396C969.789 315.799 970.512 315.988 971.222 315.988 972.378 315.988 973.498 315.467 974.172 314.531 974.172 314.531 980.554 300.26 980.554 300.047 980.988 298.531 980.554 296.802 979.23 295.937L975.93 293.557C975.352 293.178 974.69 293 974.016 293Z" fill="#2F4A8A" fill-rule="evenodd"/><path d="M1016.12 238.012C1016.04 238.012 1015.98 238.024 1015.95 238.071L976 294.266 978.619 295.988 1016.82 238.72C1017 238.366 1016.45 238.012 1016.12 238.012Z" fill="#2F4A8A" fill-rule="evenodd"/><path d="M976.381 292.013C975.951 292.013 975.555 292.273 975.419 292.727 975.011 293.208 975.011 294.156 975.634 294.623L978.521 296.766C978.781 296.922 979.019 297 979.257 297 980.332 297 980.989 295.416 979.97 294.623L977.072 292.26C976.857 292.091 976.608 292.013 976.381 292.013Z" fill="#334F70" fill-rule="evenodd"/><path d="M938.509 333 933.012 340.739 951.491 353 957 345.261 938.509 333Z" fill="#2F4A8A" fill-rule="evenodd"/><path d="M933.682 324C932.664 324 931.622 324.536 931.089 325.476 930.012 326.786 930.438 328.738 931.954 329.821L960.701 349.381C961.317 349.81 961.932 350 962.513 350 965.177 350 967 346.131 964.158 344.167L935.411 324.607C934.925 324.202 934.31 324 933.682 324Z" fill="#2F4A8A" fill-rule="evenodd"/><path d="M929.455 336.012C927.328 336.012 925.214 337.057 923.871 338.946L828.012 481 860.979 503.988 957.052 361.507C959 358.252 958.347 354.129 955.317 352.181L933.197 337.212C932.044 336.392 930.75 336.012 929.455 336.012Z" fill="#C3D9FB" fill-rule="evenodd"/><path d="M929.368 336.012C927.192 336.012 925.052 337.05 923.839 338.925L898 376.817 931.437 398.988 957.05 361.32C959 358.301 958.132 354.209 955.088 352.063L933.173 337.203C932.02 336.389 930.688 336.012 929.368 336.012Z" fill="#F8DBC4" fill-rule="evenodd"/><path d="M938.985 362.012C938.416 362.012 937.882 362.237 937.638 362.616 937 363.48 937.209 364.783 938.056 365.422L948.864 372.988 950.988 369.969 940.181 362.403C939.821 362.13 939.391 362.012 938.985 362.012Z" fill="#2F4A8A" fill-rule="evenodd"/><path d="M928.066 378C927.474 378 926.905 378.285 926.65 378.819 926.012 379.685 926.221 380.765 927.068 381.417L938.085 389 940 385.962 929.192 378.38C928.856 378.119 928.449 378 928.066 378Z" fill="#2F4A8A" fill-rule="evenodd"/><path d="M916.276 394C915.617 394 914.97 394.369 914.684 395.093 914.012 396.021 914.236 397.178 915.144 397.877L926.948 406 929 402.746 917.42 394.394C917.072 394.14 916.674 394 916.276 394Z" fill="#2F4A8A" fill-rule="evenodd"/><path d="M905.243 411C904.654 411 904.078 411.279 903.674 411.792 903 412.641 903.233 413.922 904.127 414.341L915.978 422 918 419.02 906.358 411.372C906.002 411.116 905.623 411 905.243 411Z" fill="#2F4A8A" fill-rule="evenodd"/><path d="M894.138 428C893.582 428 893.051 428.232 892.664 428.604 892 429.452 892.217 430.718 893.328 431.357L904.79 438.988 906.988 435.806 895.309 428.395C894.935 428.128 894.536 428 894.138 428Z" fill="#2F4A8A" fill-rule="evenodd"/><path d="M882.232 444.012C881.665 444.012 881.05 444.232 880.676 444.604 880.012 445.452 880.229 446.73 881.327 447.357L892.792 455 894.988 452.026 883.319 444.395C883.041 444.128 882.643 444.012 882.232 444.012Z" fill="#2F4A8A" fill-rule="evenodd"/><path d="M871.132 461C870.556 461 869.956 461.291 869.686 461.802 869.012 462.651 869.233 463.709 870.127 464.349L881.99 471.988 884 469.012 872.137 461.372C871.88 461.128 871.512 461 871.132 461Z" fill="#2F4A8A" fill-rule="evenodd"/><path d="M504.623 96.7422C488.863 100 473.529 104.78 458.834 111.069 449.983 114.981 444.576 119.321 444.15 130.818 444.15 136.893 444.801 143.195 446.091 149.27 449.333 166.201 453.864 183.132 457.544 198.969 463.152 223.069 469.636 243.472 473.304 265.17 469.423 266.252 465.968 267.346 462.076 268 450.409 236.302 440.695 203.749 432.922 170.755 430.331 159.258 427.089 147.321 426.225 135.597 426.012 132.34 426.012 128.868 426.225 125.61 427.514 108.465 440.908 99.786 454.728 94.5783 469.636 88.7168 486.485 86.7669 504.197 84.5911 505.712 80.2514 505.061 72 509.593 72.4399 514.775 72.8679 515 81.7732 515 89.5847 515 97.6102 514.562 107.169 509.167 106.73 505.061 106.29 505.712 100.654 504.623 96.7422Z" fill="#C3D9FB" fill-rule="evenodd"/><path d="M557.377 96.7422C572.924 100 588.471 104.78 603.166 111.069 612.017 114.981 617.412 119.321 617.85 130.818 617.85 136.893 617.199 143.195 615.909 149.27 612.667 166.201 608.136 183.132 604.456 198.969 598.848 223.069 592.151 243.472 588.696 265.17 592.577 266.252 596.032 267.346 599.924 268 611.591 236.302 621.305 203.749 629.078 170.755 631.669 159.258 634.911 147.321 635.775 135.597 635.988 132.34 635.988 128.868 635.775 125.61 634.486 108.465 621.092 99.786 607.26 94.5783 592.364 88.7168 575.515 86.7669 557.803 84.5911 556.288 80.2514 556.939 72 552.407 72.4399 547.225 72.8679 547 81.7732 547 89.5847 547 97.6102 547.438 107.169 552.833 106.73 556.726 106.29 556.075 100.654 557.377 96.7422Z" fill="#C3D9FB" fill-rule="evenodd"/><path d="M582.728 257C592.706 257.867 602.458 258.735 612.222 259.602 606.58 302.332 587.503 331.396 550.205 342.471 554.113 361.554 557.356 379.342 563.865 395.609 569.935 410.795 577.965 425.113 587.931 437.91 597.695 450.708 608.1 461.117 623.708 468.496 638.889 475.649 660.579 476.956 679.655 470.658 695.917 465.24 707.843 454.391 717.167 441.808 726.717 428.583 731.481 412.09 734.082 392.353 735.389 382.158 736.042 372.402 738.204 363.289 744.487 337.04 755.119 314.487 784.826 310.364 785.254 312.313 785.693 314.048 786.121 315.996 786.56 317.957 786.988 319.906 786.988 321.854 786.56 323.815 783.306 324.896 781.785 325.978 780.277 327.499 778.543 329.02 776.797 330.315 765.31 342.684 758.801 360.472 755.546 380.637 753.812 391.486 753.384 401.895 751.436 412.09 749.262 421.204 746.234 429.878 742.112 438.338 734.735 453.738 723.677 467.189 709.803 477.384 694.836 489.1 676.626 495.826 657.752 496.693 628.923 497.988 600.51 487.579 579.473 467.842 560.397 449.84 546.083 427.062 538.493 401.681 532.423 382.811 528.088 363.289 525.7 343.338 507.49 340.082 491.003 330.754 479.077 316.65 466.724 302.985 458.267 286.064 455.012 267.849 464.55 265.246 474.314 262.858 484.506 260.909 489.269 278.258 496.206 293.657 507.704 305.16 513.346 311.232 520.711 315.569 528.741 317.731 537.84 319.692 547.604 317.957 555.408 312.752 571.242 302.332 579.473 282.381 582.075 258.081 582.075 257.654 582.3 257.214 582.728 257Z" fill="#2F4A8A" fill-rule="evenodd"/><path d="M802.068 278.667C813.954 278.012 825.402 282.789 833.18 291.926 840.093 299.539 843.775 309.319 843.988 319.54 843.988 330.631 839.454 341.079 831.238 348.465 823.886 355.648 814.818 360.425 804.874 362.391 787.802 365 773.75 353.909 767.488 341.722 765.108 337.6 763.593 333.026 762.942 328.249 761 305.626 772.235 288.888 786.287 282.146 791.259 280.18 796.658 278.882 802.068 278.667Z" fill="#90D1CB" fill-rule="evenodd"/><path d="M800.916 294.298C809.869 293 818.811 297.096 823.831 304.638 824.919 306.149 825.792 307.873 826.664 309.596 833 325.33 822.528 342.776 805.279 343 791.974 343 779.972 334.372 778.657 321.659 778 313.692 781.06 305.712 787.384 300.542 791.102 297.308 795.895 294.948 800.916 294.298Z" fill="#AFDCDD" fill-rule="evenodd"/><path d="M154.023 280.023 154.023 466 426 466 426 280.023Z" fill="#2F4A8A" fill-rule="evenodd"/><path d="M177 450 177 466 194 466 194 450Z" fill="#FFB172" fill-rule="evenodd"/><path d="M212 403 212 466 228.976 466 228.976 403Z" fill="#AFDCDD" fill-rule="evenodd"/><path d="M247.023 373 247.023 466 263 466 263 373Z" fill="#FFFFFF" fill-rule="evenodd"/><path d="M282.022 330.023 282.022 466 298 466 298 330.023Z" fill="#FFB172" fill-rule="evenodd"/><path d="M317 297 317 466 333 466 333 297Z" fill="#FFFFFF" fill-rule="evenodd"/><path d="M351.023 423.023 351.023 466 368 466 368 423.023Z" fill="#FFB172" fill-rule="evenodd"/><path d="M386.024 368.023 386.024 466 402.976 466 402.976 368.023Z" fill="#AFDCDD" fill-rule="evenodd"/><path d="M85.7405 0.0188526C41.985 0.0188526 0 34.1421 0 85.5721 0 115.849 16.5001 144.072 42.9832 159.55 41.2692 167.826 39.1973 176.423 36.1082 184.341 35.8445 185.34 36.7109 185.981 37.4455 185.981 37.7281 185.981 37.9918 185.906 38.1613 185.717L54.3224 165.055C63.9475 168.844 74.6085 170.579 85.2696 170.579 85.4202 170.579 85.5521 170.579 85.7028 170.579 161.065 170.579 198.981 78.9171 145.45 25.3379 128.083 7.84269 106.705 0.0188526 85.7405 0.0188526Z" fill="#4869B1" fill-rule="evenodd" transform="matrix(-1 0 0 1 384 -273)"/><path d="M32.4523 0.0188979C16.2356 0.0188979 0.0188566 11.4521 0.0188566 32.1265 0.0188566 68.0136 63 107 63 107 63 107 126 63.875 126 32.1265 126 14.5325 111.537 0.0566937 93.9814 0.0566937 79.5373 0.0566937 67.1296 9.37337 63 23.1688 58.4178 7.35129 45.4445 0.0188979 32.4523 0.0188979Z" fill="#FFB172" fill-rule="evenodd" transform="matrix(-1 0 0 1 362 -233)"/><path d="M45.7706 0.018732C45.4313 0.018732 45.0919 0.355908 44.7338 0.693084L39.2292 20.1931 0 20.1931C0.339321 20.8674 1.03681 21.5605 1.37613 22.2349L40.266 22.2349C40.6054 22.2349 41.3029 21.8977 41.3029 21.5605L45.7706 5.48847 54.3856 37.9697C54.7249 38.3069 55.0642 38.6441 55.4035 39 56.101 39 56.4403 38.6441 56.4403 37.9697L65.7339 15.0605 68.8255 26.3372C68.8255 26.6931 69.523 27.0303 69.8624 27.0303L104.285 27.0303C104.963 26.3372 105.661 25.6628 106 24.6326L106 24.6326 70.8992 24.9697 67.4494 10.9582C67.4494 10.621 67.1101 10.2651 66.4126 10.2651 66.0733 10.2651 65.3946 10.621 65.3946 10.9582L56.101 34.2046 47.1467 0.693084C46.8074 0.355908 46.4681 0.018732 45.7706 0.018732Z" fill="#FFFFFF" fill-rule="evenodd" transform="matrix(-1 0 0 1 354 -198)"/><path d="M936.437-350.965C937.584-350.965 938.786-350.856 939.96-350.665L941.926-350.665C942.937-350.475 943.237-350.475 943.51-350.475 943.811-350.475 944.111-350.475 945.095-350.257 946.679-349.875 947.88-349.467 949.464-349.086L950.639-348.677C952.632-347.887 954.599-347.097 956.183-345.926L958.176-345.136C958.559-344.728 958.969-344.346 959.76-343.938L961.345-342.767 962.929-341.568 964.513-340.397C965.305-339.607 966.479-338.436 967.271-337.646 967.681-337.237 968.063-336.856 968.473-336.447 968.855-335.658 969.647-334.868 970.057-334.078L970.849-332.907C971.641-331.708 972.433-330.537 973.225-328.957 973.607-328.549 974.017-327.759 974.017-327.377L974.017-326.969C974.399-326.588 974.809-325.798 974.809-325.389 974.809-324.599 975.191-324.218 975.191-323.809L975.601-323.019C975.983-321.44 976.393-320.268 976.775-318.689L976.775-317.49C976.775-317.109 977.185-315.529 977.185-314.331 977.185-313.16 977.185-311.58 977.185-310 977.567-308.802 977.567-307.222 977.567-305.642L977.567-305.261C977.567-304.852 977.567-303.681 977.185-303.272 977.185-302.482 977.185-301.693 976.775-300.903 976.775-299.732 976.393-298.533 975.983-296.953L974.809-294.584C974.809-293.821 974.399-293.412 974.017-292.623L973.225-291.043C972.433-289.872 972.023-288.292 970.849-287.093 970.849-287.093 970.439-286.712 970.439-286.303 970.057-285.922 970.057-285.922 970.057-285.922L969.265-284.724 968.063-283.144C967.271-282.354 966.479-281.564 965.687-280.774L964.513-279.603 963.311-278.813 961.727-277.233C960.552-276.444 958.969-275.245 957.384-274.455L956.183-273.665 954.216-272.875 952.632-272.086 950.256-270.914C949.464-270.914 949.055-270.506 948.672-270.506 947.471-270.125 946.296-269.716 945.095-269.716L943.51-269.335 941.544-268.926C939.96-268.735 938.485-268.626 937.038-268.626 935.618-268.626 934.225-268.735 932.832-268.926L929.281-268.926 927.698-269.335C925.704-269.716 923.737-270.506 921.744-270.914L920.16-271.704 918.576-272.494 916.609-273.665C915.408-274.455 914.233-275.245 913.441-275.654L911.857-276.825C911.448-277.233 910.655-277.615 910.273-278.023 909.863-278.405 909.071-279.195 908.689-279.603 907.897-280.393 907.487-280.774 906.695-281.183L905.521-282.763C903.937-284.724 902.353-286.712 901.151-288.673 900.769-289.082 900.359-289.872 899.977-290.253 899.977-291.043 899.567-291.833 899.185-292.241 898.775-292.623 898.775-293.031 898.775-293.412 898.393-293.821 898.393-293.821 898.393-294.202L897.983-295.374 897.601-296.572C897.191-296.953 897.191-296.953 897.601-296.953 897.601-297.743 897.191-298.152 896.809-298.942 896.809-299.323 896.399-300.521 896.399-301.311 896.017-302.101 896.399-302.482 896.017-302.891 895.607-303.272 895.607-304.852 895.607-305.642 895.225-306.84 895.607-308.42 895.607-310L895.607-314.331C895.607-314.331 895.607-314.331 895.607-314.739L896.017-316.7C896.017-317.49 896.017-317.899 896.399-318.689 896.399-320.268 896.809-321.44 897.191-323.019L897.983-324.599 898.393-325.798C898.393-326.179 898.775-326.179 898.775-326.588 898.775-326.969 899.185-327.377 899.185-327.759 899.567-328.957 900.359-329.747 901.151-330.918L901.943-332.117 902.735-333.697 903.937-335.276 905.521-336.856 907.105-338.436C909.481-341.187 912.24-343.556 915.408-345.136L916.992-346.307 918.576-347.097 920.16-347.506C920.952-347.887 922.153-348.296 922.945-348.677L924.529-349.086 926.113-349.875 928.08-350.257 929.664-350.257C930.074-350.665 930.866-350.665 931.248-350.665L933.242-350.665C934.225-350.856 935.317-350.965 936.437-350.965ZM936.41-386.973C933.624-386.973 930.866-386.973 928.08-386.591 923.737-386.183 920.16-381.852 920.569-377.521L920.569-376.732C920.569-376.323 920.569-375.942 920.569-375.533 920.569-372.374 918.576-369.214 915.817-368.043L915.025-367.634 912.24-366.844 910.273-365.673 909.863-365.673C908.798-365.183 907.679-364.965 906.531-364.965 903.882-364.965 901.233-366.218 899.567-368.424 897.874-370.63 895.416-371.747 892.849-371.747 891.265-371.747 889.626-371.311 888.097-370.412L887.305-370.004C885.338-368.424 882.962-366.463 880.969-364.475 879.002-362.514 877.418-360.525 875.424-358.156 873.84-356.195 873.048-353.035 873.84-350.257 874.25-349.875 874.632-349.086 875.042-348.296 875.424-347.506 875.834-347.097 876.216-346.716L877.008-345.926C880.176-343.556 881.378-339.607 879.794-335.658 879.002-334.078 878.21-332.498 877.8-330.918 877.418-329.747 876.626-328.957 875.834-328.167 875.424-327.759 875.042-327.377 874.632-326.969 874.25-326.588 873.458-326.179 873.048-326.179L871.464-325.389 867.122-325.389C866.931-325.58 866.712-325.689 866.466-325.689 866.221-325.689 865.92-325.58 865.538-325.389 861.96-325.008 859.202-321.848 858.792-318.28 858-312.751 858-307.222 858.792-301.693 859.202-297.743 861.96-294.584 865.538-294.202 866.139-294.012 866.63-293.903 867.067-293.903 867.504-293.903 867.914-294.012 868.296-294.202L869.88-294.202C871.464-294.202 873.048-293.412 874.632-292.623 875.042-292.241 875.424-292.241 875.834-291.833 876.626-291.043 877.418-289.872 877.8-288.673 878.592-287.093 879.002-285.132 879.794-283.553 881.76-280.393 880.969-276.444 877.8-273.665L877.008-273.284 876.216-272.494C875.834-272.086 875.424-271.704 875.042-270.914 874.632-270.506 874.25-269.716 874.25-268.926L874.25-268.136C874.25-267.755 874.25-267.346 874.25-267.346 874.25-266.965 874.25-266.556 874.25-266.556 874.25-266.175 874.25-265.767 874.25-265.385L874.25-264.187 874.25-263.805C874.25-263.397 874.25-263.016 874.632-263.016L875.424-261.817C877.008-259.856 879.002-257.486 880.969-255.498 882.962-253.537 884.929-251.957 887.305-249.969 888.616-249.016 890.445-248.307 892.166-248.307 892.521-248.307 892.903-248.335 893.258-248.389 894.023-248.389 894.815-248.389 895.225-248.798 896.809-249.179 898.393-250.377 899.185-251.549L899.977-252.339C901.151-253.537 901.943-254.327 903.527-254.708L906.313-255.117C907.487-255.117 908.689-254.708 909.863-254.327 911.448-253.537 913.031-252.747 914.616-252.339 916.2-251.549 917.784-250.377 918.576-249.179 918.985-248.798 919.368-248.008 919.777-247.626 920.16-246.047 920.16-244.467 920.16-243.268 919.368-238.529 922.153-234.58 926.496-233.409L927.698-233.409C930.456-233 933.242-233 936-233 938.786-233 941.544-233 944.302-233.409 946.296-233.79 947.88-234.58 949.055-236.16 949.847-236.949 950.639-237.739 951.048-238.938 951.431-240.518 951.84-241.689 951.431-243.268 951.431-243.677 951.431-244.058 951.431-244.467 951.431-248.008 953.807-251.167 956.975-252.339 958.559-253.128 960.552-253.918 962.137-254.708 963.311-255.117 964.595-255.307 965.851-255.307 967.08-255.307 968.254-255.117 969.265-254.708 970.057-254.327 970.439-253.918 970.849-253.537 971.231-253.128 971.641-253.128 971.641-252.747 972.023-252.339 972.433-252.339 972.433-251.957 974.126-249.778 976.584-248.634 979.151-248.634 980.735-248.634 982.374-249.07 983.903-249.969 984.313-249.969 984.313-249.969 984.695-250.377 986.662-251.957 989.038-253.918 991.031-255.907 992.998-257.868 994.582-260.237 996.576-262.226 998.16-264.187 998.952-267.346 997.75-270.125 997.75-270.506 997.75-270.506 997.368-270.914 997.368-271.296 996.958-271.704 996.958-272.086 996.576-272.875 996.166-273.284 995.784-273.665L994.992-274.455 994.2-274.864C991.414-277.615 990.622-281.564 992.206-284.724 992.998-286.712 993.79-288.292 994.2-289.872 995.565-292.949 998.76-295.156 1002.15-295.156 1002.67-295.156 1003.18-295.101 1003.7-294.992 1005.67-294.992 1007.66-295.374 1009.25-296.163 1009.63-296.572 1010.04-296.953 1010.42-297.362L1011.21-297.743 1011.62-298.152C1012.42-299.323 1013.21-300.903 1013.21-302.482 1014-308.012 1014-313.541 1013.21-319.479L1013.21-319.479 1014-318.28C1014-319.07 1013.59-319.86 1013.21-320.65 1013.21-321.058 1012.8-321.44 1012.8-321.848 1012.42-322.23 1012.01-322.638 1011.62-323.019L1011.21-323.428 1010.42-324.218 1009.63-324.599C1009.25-325.008 1008.46-325.389 1007.66-325.389L1006.87-325.389C1006.46-325.58 1006.08-325.689 1005.62-325.689 1005.18-325.689 1004.69-325.58 1004.09-325.389L1002.12-325.389C1000.54-325.389 998.952-326.179 997.75-326.969L997.368-327.377 996.576-328.167 995.784-329.339 994.992-330.128C994.992-330.537 994.992-330.537 994.992-330.918L994.992-331.327C994.2-332.907 993.79-334.486 992.998-336.066L992.616-336.856C992.206-338.027 992.206-339.226 992.206-340.397 992.616-341.187 992.616-342.358 992.998-343.148 993.408-343.938 994.2-344.728 994.992-345.518L995.784-346.307 996.166-346.716C996.958-347.506 997.368-347.887 997.75-349.086 998.16-349.086 998.16-349.467 998.542-349.875 998.542-350.257 998.952-350.665 998.952-351.047 999.334-353.825 998.952-356.195 997.368-358.156 995.374-360.525 993.408-362.514 991.824-364.475 989.448-366.463 987.454-368.424 985.078-370.004 983.63-371.175 981.992-371.91 980.107-371.91 979.424-371.91 978.714-371.802 977.977-371.584L977.185-371.584C975.983-370.794 974.809-370.412 974.017-369.214L973.225-368.424C972.433-367.253 970.849-366.054 969.265-365.673 968.855-365.265 968.063-365.265 967.681-365.265L965.305-365.265 963.721-365.673 962.929-365.673 962.137-366.463 960.552-366.844 957.767-368.043C954.216-369.214 952.223-372.782 952.223-376.323L952.223-377.113C953.015-381.471 950.256-385.42 945.887-386.591L945.095-386.591C942.336-386.973 939.55-386.973 936.41-386.973Z" fill="#4869B1" fill-rule="evenodd"/></g></svg>